<svg width="225" height="114" viewBox="0 0 225 114" fill="none" xmlns="http://www.w3.org/2000/svg">
<path d="M59.6232 27.8478L53.2486 34.4897C53.2486 33.5012 46.6716 29.6499 43.3831 27.8478C36.705 24.7586 34.7319 19.3523 34.5801 17.0354C33.4874 6.90261 39.1334 3.28817 41.4101 1.898C45.2045 -0.418946 49.7071 -0.00704304 51.7308 0.353371C57.4376 1.71265 62.2033 6.06851 63.8729 8.07653L57.6501 14.8729C51.8219 8.07653 47.2281 9.15777 45.6598 10.5479C40.6815 13.8843 44.6985 17.8077 47.3293 19.3523C48.3007 20.0938 50.1625 21.2059 50.9719 21.6693C53.7646 22.6579 57.903 26.2002 59.6232 27.8478Z" fill="#0599DC"/>
<path d="M37.6157 37.5789L32 44.2209C32.7589 46.0744 37.7675 50.4835 40.3477 51.4806C49.9399 55.1877 57.3972 50.3479 59.9268 47.4646L87.7017 19.5068C89.8873 16.7882 94.4811 13.0193 96.5047 11.4747C100.147 8.63255 107.129 9.46665 110.165 10.239C114.779 10.3625 119.575 15.6452 121.396 18.271L128.529 13.4827C125.373 5.32704 116.286 1.84647 112.138 1.12564C99.9956 -1.96363 90.4337 2.9792 86.9429 6.68631L55.8288 38.0423C47.3294 46.6923 40.9548 41.4405 37.6157 37.5789Z" fill="#0599DC"/>
<path d="M78.8987 33.4085L87.3981 25.222C87.1553 29.4234 88.6123 32.9451 89.3712 34.1809C90.8889 37.2701 94.8351 40.7713 96.96 41.904C99.3884 43.4486 106.269 43.6546 109.557 43.2942C112.471 42.9235 115.628 40.5653 116.843 39.4326L147.35 8.69443C149.414 6.59373 153.572 3.59715 155.394 2.67037C158.518 1.08069 164.956 -0.26443 168.598 0.0444958C176.612 1.2802 181.246 5.39922 182.562 7.30426L182.713 1.43466H191.972V43.2942C192.336 52.3148 189.088 58.689 187.418 60.7485C184.019 66.1856 176.491 68.8836 173.151 69.5529C170.844 70.1708 165.006 70.0163 162.375 69.8618L158.126 69.0895C153.512 68.101 149.221 65.0735 147.653 63.6833C146.075 62.5712 143.555 58.696 142.645 56.7325L140.52 51.4807H150.689C151.751 53.7532 155.545 57.4018 157.67 58.895C160.904 61.1674 166.878 60.5426 169.812 60.4396C174.426 60.316 178.413 57.0929 179.83 55.4968C181.651 53.6432 182.41 48.9578 182.562 46.8468C182.865 45.3022 182.562 45.9201 181.803 46.3834L177.705 49.0093L174.062 50.5539C170.875 52.0986 162.831 51.7896 159.188 51.0173C157.367 50.5539 153.269 48.3915 151.751 47.4647C150.689 47.0013 145.984 42.5219 145.376 40.9772C144.162 39.1237 142.341 35.2621 141.734 33.4085C144.769 29.9486 148.766 26.3032 150.385 24.9131C150.021 27.0138 150.84 30.4222 151.296 31.8639C152.51 36.5596 157.063 39.896 159.188 40.9772C168.173 44.4372 175.58 40.5653 178.16 38.1969C182.167 34.2426 183.067 29.0321 183.017 26.9211C182.41 15.5526 175.883 12.0926 172.696 11.0114C166.322 8.38551 159.947 10.9084 157.519 12.7105L153.572 16.1087L137.939 32.0184L122.61 47.4647C117.905 52.0541 107.433 53.0768 103.183 52.7164C95.8975 52.5929 90.1301 49.1638 88.157 47.4647C82.2074 43.634 79.5058 36.4978 78.8987 33.4085Z" fill="#FFC31D"/>
<path d="M9.71591 79.0909C9.63068 78.3712 9.28504 77.8125 8.67898 77.4148C8.07292 77.017 7.32955 76.8182 6.44886 76.8182C5.80492 76.8182 5.24148 76.9223 4.75852 77.1307C4.2803 77.339 3.90625 77.6255 3.63636 77.9901C3.37121 78.3546 3.23864 78.7689 3.23864 79.233C3.23864 79.6212 3.33097 79.955 3.51562 80.2344C3.70502 80.509 3.9465 80.7386 4.24006 80.9233C4.53362 81.1032 4.84138 81.2524 5.16335 81.3707C5.48532 81.4844 5.78125 81.5767 6.05114 81.6477L7.52841 82.0455C7.9072 82.1449 8.3286 82.2822 8.79261 82.4574C9.26136 82.6326 9.70881 82.8717 10.1349 83.1747C10.5658 83.473 10.9209 83.8565 11.2003 84.3253C11.4796 84.794 11.6193 85.3693 11.6193 86.0511C11.6193 86.8371 11.4134 87.5473 11.0014 88.1818C10.5942 88.8163 9.99763 89.3205 9.21165 89.6946C8.4304 90.0687 7.48106 90.2557 6.36364 90.2557C5.32197 90.2557 4.41998 90.0876 3.65767 89.7514C2.90009 89.4152 2.3035 88.9465 1.8679 88.3452C1.43703 87.7438 1.19318 87.0455 1.13636 86.25H2.95455C3.00189 86.7992 3.18655 87.2538 3.50852 87.6136C3.83523 87.9687 4.24716 88.2339 4.74432 88.4091C5.24621 88.5795 5.78598 88.6648 6.36364 88.6648C7.03598 88.6648 7.63968 88.5559 8.17472 88.3381C8.70975 88.1155 9.13352 87.8078 9.44602 87.4148C9.75852 87.017 9.91477 86.553 9.91477 86.0227C9.91477 85.5398 9.77983 85.1468 9.50994 84.8438C9.24006 84.5407 8.88494 84.2945 8.4446 84.1051C8.00426 83.9157 7.52841 83.75 7.01705 83.608L5.22727 83.0966C4.09091 82.7699 3.19129 82.3035 2.52841 81.6974C1.86553 81.0914 1.53409 80.2983 1.53409 79.3182C1.53409 78.5038 1.75426 77.7936 2.1946 77.1875C2.63968 76.5767 3.23627 76.1032 3.98438 75.767C4.73722 75.4261 5.57765 75.2557 6.50568 75.2557C7.44318 75.2557 8.27652 75.4238 9.00568 75.7599C9.73485 76.0914 10.3125 76.5459 10.7386 77.1236C11.1695 77.7012 11.3968 78.357 11.4205 79.0909H9.71591ZM14.5153 90V75.4545H16.2766V81.9318H24.0323V75.4545H25.7937V90H24.0323V83.4943H16.2766V90H14.5153ZM29.32 90V75.4545H38.0984V77.017H31.0813V81.9318H37.6438V83.4943H31.0813V88.4375H38.212V90H29.32ZM43.0344 75.4545V90H41.2731V75.4545H43.0344ZM45.7706 77.017V75.4545H56.6797V77.017H52.1058V90H50.3445V77.017H45.7706ZM59.3981 90V75.4545H68.1765V77.017H61.1594V81.9318H67.7219V83.4943H61.1594V88.4375H68.2901V90H59.3981ZM71.3512 90V75.4545H76.266C77.4023 75.4545 78.3351 75.6487 79.0643 76.0369C79.7934 76.4205 80.3332 76.9484 80.6836 77.6207C81.034 78.2931 81.2092 79.0578 81.2092 79.9148C81.2092 80.7718 81.034 81.5317 80.6836 82.1946C80.3332 82.8575 79.7958 83.3783 79.0714 83.7571C78.3469 84.1312 77.4213 84.3182 76.2944 84.3182H72.3171V82.7273H76.2376C77.0141 82.7273 77.6391 82.6136 78.1126 82.3864C78.5908 82.1591 78.9364 81.8371 79.1495 81.4205C79.3673 80.9991 79.4762 80.4972 79.4762 79.9148C79.4762 79.3324 79.3673 78.8234 79.1495 78.3878C78.9317 77.9522 78.5837 77.616 78.1055 77.3793C77.6272 77.1378 76.9951 77.017 76.2092 77.017H73.1126V90H71.3512ZM78.1978 83.4659L81.7773 90H79.7319L76.2092 83.4659H78.1978ZM101.474 80H99.7124C99.6082 79.4934 99.4259 79.0483 99.1655 78.6648C98.9098 78.2812 98.5973 77.9593 98.228 77.6989C97.8634 77.4337 97.4586 77.2348 97.0135 77.1023C96.5684 76.9697 96.1044 76.9034 95.6214 76.9034C94.7408 76.9034 93.9429 77.1259 93.228 77.571C92.5178 78.0161 91.9519 78.6719 91.5305 79.5384C91.1139 80.4048 90.9055 81.4678 90.9055 82.7273C90.9055 83.9867 91.1139 85.0497 91.5305 85.9162C91.9519 86.7827 92.5178 87.4384 93.228 87.8835C93.9429 88.3286 94.7408 88.5511 95.6214 88.5511C96.1044 88.5511 96.5684 88.4848 97.0135 88.3523C97.4586 88.2197 97.8634 88.0232 98.228 87.7628C98.5973 87.4976 98.9098 87.1733 99.1655 86.7898C99.4259 86.4015 99.6082 85.9564 99.7124 85.4545H101.474C101.341 86.1979 101.1 86.8632 100.749 87.4503C100.399 88.0374 99.9633 88.5369 99.4425 88.9489C98.9216 89.3561 98.3369 89.6662 97.6882 89.8793C97.0443 90.0923 96.3554 90.1989 95.6214 90.1989C94.3809 90.1989 93.2777 89.8958 92.3118 89.2898C91.3459 88.6837 90.5859 87.822 90.032 86.7045C89.478 85.5871 89.201 84.2614 89.201 82.7273C89.201 81.1932 89.478 79.8674 90.032 78.75C90.5859 77.6326 91.3459 76.7708 92.3118 76.1648C93.2777 75.5587 94.3809 75.2557 95.6214 75.2557C96.3554 75.2557 97.0443 75.3622 97.6882 75.5753C98.3369 75.7884 98.9216 76.1009 99.4425 76.5128C99.9633 76.92 100.399 77.4171 100.749 78.0043C101.1 78.5866 101.341 79.2519 101.474 80ZM104.917 90H103.07L108.411 75.4545H110.229L115.57 90H113.723L109.377 77.7557H109.263L104.917 90ZM105.598 84.3182H113.042V85.8807H105.598V84.3182ZM117.836 90V75.4545H122.75C123.887 75.4545 124.819 75.6487 125.549 76.0369C126.278 76.4205 126.818 76.9484 127.168 77.6207C127.518 78.2931 127.694 79.0578 127.694 79.9148C127.694 80.7718 127.518 81.5317 127.168 82.1946C126.818 82.8575 126.28 83.3783 125.556 83.7571C124.831 84.1312 123.906 84.3182 122.779 84.3182H118.801V82.7273H122.722C123.498 82.7273 124.123 82.6136 124.597 82.3864C125.075 82.1591 125.421 81.8371 125.634 81.4205C125.852 80.9991 125.961 80.4972 125.961 79.9148C125.961 79.3324 125.852 78.8234 125.634 78.3878C125.416 77.9522 125.068 77.616 124.59 77.3793C124.112 77.1378 123.48 77.017 122.694 77.017H119.597V90H117.836ZM124.682 83.4659L128.262 90H126.216L122.694 83.4659H124.682ZM130.629 90V75.4545H139.407V77.017H132.39V81.9318H138.952V83.4943H132.39V88.4375H139.521V90H130.629ZM158.15 80C157.994 79.5218 157.788 79.0933 157.532 78.7145C157.281 78.331 156.98 78.0043 156.63 77.7344C156.284 77.4645 155.891 77.2585 155.451 77.1165C155.011 76.9744 154.528 76.9034 154.002 76.9034C153.14 76.9034 152.357 77.1259 151.651 77.571C150.946 78.0161 150.385 78.6719 149.968 79.5384C149.551 80.4048 149.343 81.4678 149.343 82.7273C149.343 83.9867 149.554 85.0497 149.975 85.9162C150.397 86.7827 150.967 87.4384 151.687 87.8835C152.406 88.3286 153.216 88.5511 154.116 88.5511C154.949 88.5511 155.683 88.3736 156.317 88.0185C156.957 87.6586 157.454 87.152 157.809 86.4986C158.169 85.8404 158.349 85.0663 158.349 84.1761L158.888 84.2898H154.513V82.7273H160.053V84.2898C160.053 85.4877 159.798 86.5294 159.286 87.4148C158.78 88.3002 158.079 88.9867 157.184 89.4744C156.294 89.9574 155.271 90.1989 154.116 90.1989C152.828 90.1989 151.696 89.8958 150.721 89.2898C149.75 88.6837 148.993 87.822 148.448 86.7045C147.908 85.5871 147.638 84.2614 147.638 82.7273C147.638 81.5767 147.792 80.5421 148.1 79.6236C148.413 78.7003 148.853 77.9143 149.421 77.2656C149.989 76.617 150.662 76.1198 151.438 75.7741C152.215 75.4285 153.069 75.2557 154.002 75.2557C154.769 75.2557 155.484 75.3717 156.147 75.6037C156.815 75.831 157.409 76.1553 157.93 76.5767C158.455 76.9934 158.893 77.4929 159.244 78.0753C159.594 78.6529 159.835 79.2945 159.968 80H158.15ZM163.07 90V75.4545H164.831V88.4375H171.593V90H163.07ZM186.026 82.7273C186.026 84.2614 185.749 85.5871 185.195 86.7045C184.641 87.822 183.881 88.6837 182.915 89.2898C181.95 89.8958 180.846 90.1989 179.606 90.1989C178.365 90.1989 177.262 89.8958 176.296 89.2898C175.33 88.6837 174.57 87.822 174.016 86.7045C173.462 85.5871 173.185 84.2614 173.185 82.7273C173.185 81.1932 173.462 79.8674 174.016 78.75C174.57 77.6326 175.33 76.7708 176.296 76.1648C177.262 75.5587 178.365 75.2557 179.606 75.2557C180.846 75.2557 181.95 75.5587 182.915 76.1648C183.881 76.7708 184.641 77.6326 185.195 78.75C185.749 79.8674 186.026 81.1932 186.026 82.7273ZM184.322 82.7273C184.322 81.4678 184.111 80.4048 183.69 79.5384C183.273 78.6719 182.707 78.0161 181.992 77.571C181.282 77.1259 180.487 76.9034 179.606 76.9034C178.725 76.9034 177.927 77.1259 177.212 77.571C176.502 78.0161 175.936 78.6719 175.515 79.5384C175.098 80.4048 174.89 81.4678 174.89 82.7273C174.89 83.9867 175.098 85.0497 175.515 85.9162C175.936 86.7827 176.502 87.4384 177.212 87.8835C177.927 88.3286 178.725 88.5511 179.606 88.5511C180.487 88.5511 181.282 88.3286 181.992 87.8835C182.707 87.4384 183.273 86.7827 183.69 85.9162C184.111 85.0497 184.322 83.9867 184.322 82.7273ZM188.988 90V75.4545H194.073C195.086 75.4545 195.922 75.6297 196.58 75.9801C197.238 76.3258 197.728 76.7921 198.05 77.3793C198.372 77.9616 198.533 78.608 198.533 79.3182C198.533 79.9432 198.422 80.4593 198.2 80.8665C197.982 81.2737 197.693 81.5956 197.333 81.8324C196.978 82.0691 196.592 82.2443 196.175 82.358V82.5C196.621 82.5284 197.068 82.6847 197.518 82.9688C197.968 83.2528 198.344 83.66 198.647 84.1903C198.95 84.7206 199.102 85.3693 199.102 86.1364C199.102 86.8655 198.936 87.5213 198.604 88.1037C198.273 88.6861 197.75 89.1477 197.035 89.4886C196.32 89.8295 195.389 90 194.244 90H188.988ZM190.749 88.4375H194.244C195.394 88.4375 196.211 88.215 196.694 87.7699C197.182 87.3201 197.425 86.7756 197.425 86.1364C197.425 85.6439 197.3 85.1894 197.049 84.7727C196.798 84.3513 196.441 84.0152 195.977 83.7642C195.513 83.5085 194.963 83.3807 194.329 83.3807H190.749V88.4375ZM190.749 81.8466H194.016C194.547 81.8466 195.025 81.7424 195.451 81.5341C195.882 81.3258 196.223 81.0322 196.474 80.6534C196.729 80.2746 196.857 79.8295 196.857 79.3182C196.857 78.679 196.635 78.1368 196.19 77.6918C195.745 77.242 195.039 77.017 194.073 77.017H190.749V81.8466ZM202.592 90H200.746L206.087 75.4545H207.905L213.246 90H211.399L207.053 77.7557H206.939L202.592 90ZM203.274 84.3182H210.717V85.8807H203.274V84.3182ZM215.511 90V75.4545H217.273V88.4375H224.034V90H215.511Z" fill="url(#paint0_linear_1_198)"/>
<path d="M96.0568 106V97.2727H99.0057C99.6875 97.2727 100.247 97.3892 100.685 97.6222C101.122 97.8523 101.446 98.169 101.656 98.5724C101.866 98.9759 101.972 99.4347 101.972 99.9489C101.972 100.463 101.866 100.919 101.656 101.317C101.446 101.714 101.124 102.027 100.689 102.254C100.254 102.479 99.6989 102.591 99.0227 102.591H96.6364V101.636H98.9886C99.4545 101.636 99.8295 101.568 100.114 101.432C100.401 101.295 100.608 101.102 100.736 100.852C100.866 100.599 100.932 100.298 100.932 99.9489C100.932 99.5994 100.866 99.294 100.736 99.0327C100.605 98.7713 100.396 98.5696 100.109 98.4276C99.8224 98.2827 99.4432 98.2102 98.9716 98.2102H97.1136V106H96.0568ZM100.165 102.08L102.312 106H101.085L98.9716 102.08H100.165ZM106.27 106.136C105.64 106.136 105.096 105.997 104.638 105.719C104.184 105.438 103.833 105.045 103.586 104.543C103.341 104.037 103.219 103.449 103.219 102.778C103.219 102.108 103.341 101.517 103.586 101.006C103.833 100.491 104.176 100.091 104.617 99.804C105.06 99.5142 105.577 99.3693 106.168 99.3693C106.509 99.3693 106.846 99.4261 107.178 99.5398C107.51 99.6534 107.813 99.8381 108.086 100.094C108.358 100.347 108.576 100.682 108.738 101.099C108.9 101.517 108.98 102.031 108.98 102.642V103.068H103.935V102.199H107.958C107.958 101.83 107.884 101.5 107.736 101.21C107.591 100.92 107.384 100.692 107.114 100.524C106.847 100.357 106.532 100.273 106.168 100.273C105.767 100.273 105.421 100.372 105.128 100.571C104.838 100.767 104.615 101.023 104.459 101.338C104.303 101.653 104.225 101.991 104.225 102.352V102.932C104.225 103.426 104.31 103.845 104.48 104.189C104.654 104.53 104.894 104.79 105.201 104.969C105.507 105.145 105.864 105.233 106.27 105.233C106.534 105.233 106.773 105.196 106.986 105.122C107.202 105.045 107.388 104.932 107.544 104.781C107.701 104.628 107.821 104.437 107.907 104.21L108.878 104.483C108.776 104.812 108.604 105.102 108.363 105.352C108.121 105.599 107.823 105.793 107.468 105.932C107.113 106.068 106.713 106.136 106.27 106.136ZM112.436 106.153C112.022 106.153 111.645 106.075 111.307 105.919C110.969 105.76 110.701 105.531 110.502 105.233C110.303 104.932 110.203 104.568 110.203 104.142C110.203 103.767 110.277 103.463 110.425 103.23C110.573 102.994 110.77 102.81 111.017 102.676C111.265 102.543 111.537 102.443 111.836 102.378C112.137 102.31 112.439 102.256 112.743 102.216C113.141 102.165 113.463 102.126 113.711 102.101C113.961 102.072 114.142 102.026 114.256 101.96C114.373 101.895 114.431 101.781 114.431 101.619V101.585C114.431 101.165 114.316 100.838 114.086 100.605C113.858 100.372 113.513 100.256 113.05 100.256C112.57 100.256 112.194 100.361 111.921 100.571C111.648 100.781 111.456 101.006 111.346 101.244L110.391 100.903C110.561 100.506 110.789 100.196 111.073 99.9744C111.36 99.75 111.672 99.5937 112.01 99.5057C112.351 99.4148 112.686 99.3693 113.016 99.3693C113.226 99.3693 113.468 99.3949 113.74 99.446C114.016 99.4943 114.282 99.5952 114.537 99.7486C114.796 99.902 115.01 100.134 115.181 100.443C115.351 100.753 115.436 101.168 115.436 101.688V106H114.431V105.114H114.38C114.311 105.256 114.198 105.408 114.039 105.57C113.88 105.732 113.668 105.869 113.404 105.983C113.14 106.097 112.817 106.153 112.436 106.153ZM112.59 105.25C112.988 105.25 113.323 105.172 113.596 105.016C113.871 104.859 114.078 104.658 114.218 104.411C114.36 104.163 114.431 103.903 114.431 103.631V102.71C114.388 102.761 114.294 102.808 114.15 102.851C114.007 102.891 113.843 102.926 113.655 102.957C113.471 102.986 113.29 103.011 113.114 103.034C112.941 103.054 112.8 103.071 112.692 103.085C112.431 103.119 112.186 103.175 111.959 103.251C111.735 103.325 111.553 103.437 111.414 103.588C111.277 103.736 111.209 103.937 111.209 104.193C111.209 104.543 111.338 104.807 111.597 104.986C111.858 105.162 112.189 105.25 112.59 105.25ZM118.278 97.2727V106H117.272V97.2727H118.278ZM122.966 99.4545V100.307H119.574V99.4545H122.966ZM120.563 97.8864H121.569V104.125C121.569 104.409 121.61 104.622 121.692 104.764C121.777 104.903 121.885 104.997 122.016 105.045C122.15 105.091 122.29 105.114 122.438 105.114C122.549 105.114 122.64 105.108 122.711 105.097C122.782 105.082 122.838 105.071 122.881 105.062L123.086 105.966C123.017 105.991 122.922 106.017 122.8 106.043C122.678 106.071 122.523 106.085 122.336 106.085C122.051 106.085 121.773 106.024 121.5 105.902C121.23 105.78 121.006 105.594 120.827 105.344C120.651 105.094 120.563 104.778 120.563 104.398V97.8864ZM125.127 108.455C124.956 108.455 124.804 108.44 124.671 108.412C124.537 108.386 124.445 108.361 124.394 108.335L124.65 107.449C124.894 107.511 125.11 107.534 125.297 107.517C125.485 107.5 125.651 107.416 125.796 107.266C125.944 107.118 126.078 106.878 126.201 106.545L126.388 106.034L123.968 99.4545H125.059L126.865 104.67H126.934L128.74 99.4545H129.831L127.053 106.955C126.928 107.293 126.773 107.572 126.588 107.794C126.404 108.018 126.189 108.185 125.945 108.293C125.703 108.401 125.431 108.455 125.127 108.455ZM136.255 106L133.869 97.2727H134.943L136.767 104.381H136.852L138.71 97.2727H139.903L141.761 104.381H141.846L143.67 97.2727H144.744L142.358 106H141.267L139.341 99.0455H139.272L137.346 106H136.255ZM145.924 106V99.4545H146.93V106H145.924ZM146.436 98.3636C146.24 98.3636 146.071 98.2969 145.929 98.1634C145.789 98.0298 145.72 97.8693 145.72 97.6818C145.72 97.4943 145.789 97.3338 145.929 97.2003C146.071 97.0668 146.24 97 146.436 97C146.632 97 146.799 97.0668 146.939 97.2003C147.081 97.3338 147.152 97.4943 147.152 97.6818C147.152 97.8693 147.081 98.0298 146.939 98.1634C146.799 98.2969 146.632 98.3636 146.436 98.3636ZM151.619 99.4545V100.307H148.227V99.4545H151.619ZM149.215 97.8864H150.221V104.125C150.221 104.409 150.262 104.622 150.344 104.764C150.43 104.903 150.538 104.997 150.668 105.045C150.802 105.091 150.942 105.114 151.09 105.114C151.201 105.114 151.292 105.108 151.363 105.097C151.434 105.082 151.491 105.071 151.533 105.062L151.738 105.966C151.67 105.991 151.575 106.017 151.452 106.043C151.33 106.071 151.175 106.085 150.988 106.085C150.704 106.085 150.425 106.024 150.153 105.902C149.883 105.78 149.658 105.594 149.479 105.344C149.303 105.094 149.215 104.778 149.215 104.398V97.8864ZM154.278 102.062V106H153.272V97.2727H154.278V100.477H154.363C154.516 100.139 154.746 99.8707 155.053 99.6719C155.363 99.4702 155.775 99.3693 156.289 99.3693C156.735 99.3693 157.126 99.4588 157.461 99.6378C157.796 99.8139 158.056 100.085 158.241 100.452C158.428 100.815 158.522 101.278 158.522 101.841V106H157.516V101.909C157.516 101.389 157.381 100.987 157.112 100.703C156.844 100.416 156.474 100.273 155.999 100.273C155.67 100.273 155.374 100.342 155.113 100.482C154.854 100.621 154.65 100.824 154.499 101.091C154.352 101.358 154.278 101.682 154.278 102.062ZM163.873 106V97.2727H169.14V98.2102H164.93V101.159H168.868V102.097H164.93V105.062H169.208V106H163.873ZM170.909 106V99.4545H171.88V100.477H171.966C172.102 100.128 172.322 99.8565 172.626 99.6634C172.93 99.4673 173.295 99.3693 173.721 99.3693C174.153 99.3693 174.512 99.4673 174.799 99.6634C175.089 99.8565 175.315 100.128 175.477 100.477H175.545C175.713 100.139 175.964 99.8707 176.299 99.6719C176.635 99.4702 177.037 99.3693 177.505 99.3693C178.091 99.3693 178.569 99.5526 178.941 99.919C179.314 100.283 179.5 100.849 179.5 101.619V106H178.494V101.619C178.494 101.136 178.362 100.791 178.098 100.584C177.833 100.376 177.522 100.273 177.164 100.273C176.704 100.273 176.348 100.412 176.095 100.69C175.842 100.966 175.716 101.315 175.716 101.739V106H174.693V101.517C174.693 101.145 174.572 100.845 174.331 100.618C174.089 100.388 173.778 100.273 173.397 100.273C173.136 100.273 172.892 100.342 172.664 100.482C172.44 100.621 172.258 100.814 172.119 101.061C171.983 101.305 171.914 101.588 171.914 101.909V106H170.909ZM183.998 106.136C183.407 106.136 182.888 105.996 182.442 105.714C181.999 105.433 181.652 105.04 181.402 104.534C181.155 104.028 181.032 103.437 181.032 102.761C181.032 102.08 181.155 101.484 181.402 100.976C181.652 100.467 181.999 100.072 182.442 99.7912C182.888 99.5099 183.407 99.3693 183.998 99.3693C184.588 99.3693 185.105 99.5099 185.549 99.7912C185.995 100.072 186.341 100.467 186.588 100.976C186.838 101.484 186.963 102.08 186.963 102.761C186.963 103.437 186.838 104.028 186.588 104.534C186.341 105.04 185.995 105.433 185.549 105.714C185.105 105.996 184.588 106.136 183.998 106.136ZM183.998 105.233C184.446 105.233 184.816 105.118 185.105 104.888C185.395 104.658 185.61 104.355 185.749 103.98C185.888 103.605 185.958 103.199 185.958 102.761C185.958 102.324 185.888 101.916 185.749 101.538C185.61 101.161 185.395 100.855 185.105 100.622C184.816 100.389 184.446 100.273 183.998 100.273C183.549 100.273 183.179 100.389 182.89 100.622C182.6 100.855 182.385 101.161 182.246 101.538C182.107 101.916 182.037 102.324 182.037 102.761C182.037 103.199 182.107 103.605 182.246 103.98C182.385 104.355 182.6 104.658 182.89 104.888C183.179 105.118 183.549 105.233 183.998 105.233ZM191.345 99.4545V100.307H187.953V99.4545H191.345ZM188.942 97.8864H189.947V104.125C189.947 104.409 189.989 104.622 190.071 104.764C190.156 104.903 190.264 104.997 190.395 105.045C190.528 105.091 190.669 105.114 190.817 105.114C190.928 105.114 191.018 105.108 191.089 105.097C191.161 105.082 191.217 105.071 191.26 105.062L191.464 105.966C191.396 105.991 191.301 106.017 191.179 106.043C191.057 106.071 190.902 106.085 190.714 106.085C190.43 106.085 190.152 106.024 189.879 105.902C189.609 105.78 189.385 105.594 189.206 105.344C189.03 105.094 188.942 104.778 188.942 104.398V97.8864ZM192.858 106V99.4545H193.864V106H192.858ZM193.369 98.3636C193.173 98.3636 193.004 98.2969 192.862 98.1634C192.723 98.0298 192.653 97.8693 192.653 97.6818C192.653 97.4943 192.723 97.3338 192.862 97.2003C193.004 97.0668 193.173 97 193.369 97C193.565 97 193.733 97.0668 193.872 97.2003C194.014 97.3338 194.085 97.4943 194.085 97.6818C194.085 97.8693 194.014 98.0298 193.872 98.1634C193.733 98.2969 193.565 98.3636 193.369 98.3636ZM198.365 106.136C197.774 106.136 197.255 105.996 196.809 105.714C196.366 105.433 196.02 105.04 195.77 104.534C195.522 104.028 195.399 103.437 195.399 102.761C195.399 102.08 195.522 101.484 195.77 100.976C196.02 100.467 196.366 100.072 196.809 99.7912C197.255 99.5099 197.774 99.3693 198.365 99.3693C198.956 99.3693 199.473 99.5099 199.916 99.7912C200.362 100.072 200.708 100.467 200.956 100.976C201.206 101.484 201.331 102.08 201.331 102.761C201.331 103.437 201.206 104.028 200.956 104.534C200.708 105.04 200.362 105.433 199.916 105.714C199.473 105.996 198.956 106.136 198.365 106.136ZM198.365 105.233C198.814 105.233 199.183 105.118 199.473 104.888C199.762 104.658 199.977 104.355 200.116 103.98C200.255 103.605 200.325 103.199 200.325 102.761C200.325 102.324 200.255 101.916 200.116 101.538C199.977 101.161 199.762 100.855 199.473 100.622C199.183 100.389 198.814 100.273 198.365 100.273C197.916 100.273 197.547 100.389 197.257 100.622C196.967 100.855 196.752 101.161 196.613 101.538C196.474 101.916 196.404 102.324 196.404 102.761C196.404 103.199 196.474 103.605 196.613 103.98C196.752 104.355 196.967 104.658 197.257 104.888C197.547 105.118 197.916 105.233 198.365 105.233ZM203.871 102.062V106H202.866V99.4545H203.837V100.477H203.923C204.076 100.145 204.309 99.8778 204.621 99.6761C204.934 99.4716 205.337 99.3693 205.832 99.3693C206.275 99.3693 206.663 99.4602 206.995 99.642C207.327 99.821 207.586 100.094 207.771 100.46C207.955 100.824 208.048 101.284 208.048 101.841V106H207.042V101.909C207.042 101.395 206.908 100.994 206.641 100.707C206.374 100.418 206.008 100.273 205.542 100.273C205.221 100.273 204.934 100.342 204.681 100.482C204.431 100.621 204.234 100.824 204.089 101.091C203.944 101.358 203.871 101.682 203.871 102.062ZM214.522 100.92L213.618 101.176C213.561 101.026 213.478 100.879 213.367 100.737C213.259 100.592 213.111 100.473 212.924 100.379C212.736 100.286 212.496 100.239 212.203 100.239C211.803 100.239 211.469 100.331 211.202 100.516C210.938 100.697 210.806 100.929 210.806 101.21C210.806 101.46 210.897 101.658 211.078 101.803C211.26 101.947 211.544 102.068 211.931 102.165L212.902 102.403C213.488 102.545 213.924 102.763 214.211 103.055C214.498 103.345 214.641 103.719 214.641 104.176C214.641 104.551 214.533 104.886 214.317 105.182C214.104 105.477 213.806 105.71 213.422 105.881C213.039 106.051 212.593 106.136 212.084 106.136C211.417 106.136 210.864 105.991 210.426 105.702C209.989 105.412 209.712 104.989 209.596 104.432L210.55 104.193C210.641 104.545 210.813 104.81 211.066 104.986C211.321 105.162 211.655 105.25 212.067 105.25C212.536 105.25 212.908 105.151 213.184 104.952C213.462 104.75 213.601 104.509 213.601 104.227C213.601 104 213.522 103.81 213.363 103.656C213.203 103.5 212.959 103.384 212.63 103.307L211.539 103.051C210.939 102.909 210.499 102.689 210.218 102.391C209.939 102.089 209.8 101.713 209.8 101.261C209.8 100.892 209.904 100.565 210.111 100.281C210.321 99.9972 210.607 99.7741 210.968 99.6122C211.331 99.4503 211.743 99.3693 212.203 99.3693C212.851 99.3693 213.36 99.5114 213.729 99.7955C214.101 100.08 214.365 100.455 214.522 100.92Z" fill="url(#paint1_linear_1_198)"/>
<defs>
<linearGradient id="paint0_linear_1_198" x1="91" y1="65.5" x2="91.5" y2="95" gradientUnits="userSpaceOnUse">
<stop offset="0.42" stop-color="#0599DC"/>
<stop offset="1" stop-color="#FFC31D"/>
</linearGradient>
<linearGradient id="paint1_linear_1_198" x1="155.5" y1="90" x2="155.5" y2="114" gradientUnits="userSpaceOnUse">
<stop offset="0.255" stop-color="#FFC31D"/>
<stop offset="0.2551" stop-color="#0599DC"/>
</linearGradient>
</defs>
</svg>
